<?xml version="1.0" encoding="utf-8"?>
<!-- Generator: Adobe Illustrator 24.3.0, SVG Export Plug-In . SVG Version: 6.00 Build 0)  -->
<svg version="1.1" id="Layer_1" xmlns="http://www.w3.org/2000/svg" xmlns:xlink="http://www.w3.org/1999/xlink" x="0px" y="0px"
	 viewBox="0 0 24 24" style="enable-background:new 0 0 24 24;" xml:space="preserve">
<style type="text/css">
	.st0{fill:none;}
	.st1{fill:#3366CC;}
</style>
<rect class="st0" width="24" height="24"/>
<path id="_002-twitter" class="st1" d="M12,2C6.5,2,2,6.5,2,12s4.5,10,10,10s10-4.5,10-10S17.5,2,12,2L12,2z M17,10v0.3
	c0,3.7-3,6.7-6.8,6.7h-0.1c-1.3,0-2.6-0.4-3.7-1.1c0.2,0,0.4,0,0.6,0c1.1,0,2.2-0.4,3-1c-1,0-1.9-0.7-2.3-1.6c0.2,0,0.3,0,0.5,0
	s0.4,0,0.6-0.1c-1.1-0.2-1.9-1.2-2-2.3l0,0c0.3,0.2,0.7,0.3,1.1,0.3c-0.7-0.4-1.1-1.2-1.1-2c0-0.4,0.1-0.8,0.3-1.2
	c1.3,1.5,3.1,2.4,5,2.5c0-0.2-0.1-0.4-0.1-0.5c0-1.3,1.1-2.4,2.4-2.4c0.7,0,1.3,0.3,1.8,0.7c0.5-0.1,1.1-0.3,1.5-0.6
	c-0.2,0.6-0.6,1-1.1,1.3c0.5-0.1,1-0.2,1.4-0.4C17.9,9.2,17.5,9.6,17,10z"/>
</svg>
