<?xml version="1.0" encoding="utf-8"?>
<!-- Generator: Adobe Illustrator 24.0.1, SVG Export Plug-In . SVG Version: 6.00 Build 0)  -->
<svg version="1.1" id="Capa_1" xmlns="http://www.w3.org/2000/svg" xmlns:xlink="http://www.w3.org/1999/xlink" x="0px" y="0px"
	 viewBox="0 0 520 200" style="enable-background:new 0 0 520 200;" xml:space="preserve">
<style type="text/css">
	.st0{fill:#FFFFFF;}
	.st1{fill:#FBD015;}
	.st2{fill:#05569E;}
	.st3{fill:#D11F3E;}
</style>
<g id="Grupo_7239" transform="translate(-8996.893 373.838)">
	<g id="Grupo_7237" transform="translate(8996.893 -371.893)">
		<path id="Trazado_2295" class="st0" d="M89.9,81.8l-6.4,2.4l-0.6,1.7l-1.4,0.9c-0.1-2.5-0.3-5-0.8-7.4l2.3,0l4.2-5.2l-6.2,2.6
			l-0.6,1.8l-6,4.6c0.3,2.6,0.4,5.3,0.2,7.9l1.3-0.9c0.6,25.2-10.9,34.6-10.9,34.6c-1.4-0.5-2.6-1.3-3.7-2.3
			c10.5-11.7,10-28.6,10-29.2l-1.1,0.7c0.2-2.6,0.3-5.3,0.2-7.9l-1.9,1.5c0-1.7-0.1-3.2-0.3-4.2c1.2,0.1,2.4-0.2,3.4-0.8
			c1-1.1,1.6-2.5,1.8-4c0.2-1,0-1.3-0.6-1.7c-0.8-0.6-1.6-1.3-2.3-2c0,0,1-0.4,3.3,0.7c2.5,1.2,4.4,0.6,6.6-2.6l-2.6,0.4l0.2-1.8
			c0,0,0.1,0,0.1,0.1c0.7,0.4,1.4,0.6,2.2,0.8c0.6,0.1,0.6,0,0.9,0.3s0.7,0.3,0.9,0.2c0,0,1.4,0.8,2,0c0.3,0.2,0.6,0.3,0.8,0.4
			c0.4,0.2,0.9,0.3,1.4,0.4c0.3,0,0.6,0.1,0.9,0.2c0.9,0.5,1.5,0.2,1.6,0s-0.6-0.9-1.1-1.4c-0.3-0.3-0.6-0.4-1-0.5
			c0.2-0.1,0.1-0.3-0.2-0.7c-0.4-0.4-0.9-0.7-1.5-1c0-0.3-1.3-1.2-2.1-1.7c-0.8-0.6-0.5-0.6-1.3-1.4c-2.1-1.9-4.3-3.6-6.5-5.2
			c-3.5-2.8-7.4-5-11.5-6.7c-2.8-1.3-6.1-1.3-8.9,0.1c-1.3,0.7-1.8,2.4-1.1,3.7c0.4,1,0.8,2,1.4,2.9c0.4,0.7,0.1,0.7-0.1,0.8
			c-0.2,0.1,0,0.4-0.2,0.4s-0.3,0.2-0.5,0.4c-0.3,0.2-0.5,0.3-0.8,0.3c0-0.2,0-0.4,0.1-0.6c-0.3-0.1-0.5-0.2-0.8-0.2
			c0.1-0.1,0.3-0.2,0.3-0.2c-0.3,0-0.6,0-0.9,0c0.1-0.2,0.2-0.2,0.2-0.2c-0.5-0.1-1,0.1-1.3,0.5c-0.2-0.4-0.5-0.8-0.9-1.1
			c-0.3-0.3-0.5-0.8-0.9-1.2c0.2-0.3,0.2-0.6,0.1-0.9c-0.3-0.4-0.7-0.8-1.2-0.9c0.2-0.1,0.3-0.3,0.3-0.5c0-0.3-0.4-0.5-0.7-0.4
			c-0.4,0-0.7,0.2-1,0.3c-0.2,0-0.3,0-0.5,0c0.5-1.2,0-2.7-1.2-3.3c-2.8-1.4-6.1-1.4-8.9-0.1c-4.1,1.7-8,4-11.5,6.7
			c-2.3,1.6-4.4,3.4-6.5,5.2c-0.8,0.9-0.5,0.8-1.3,1.4s-2.1,1.4-2.1,1.7c-0.5,0.3-1,0.6-1.5,1c-0.3,0.4-0.4,0.6-0.2,0.7
			c-0.4,0.1-0.7,0.3-1,0.5c-0.5,0.5-1.2,1.2-1.1,1.4c0.1,0.2,0.7,0.5,1.6,0c0.3-0.1,0.6-0.2,0.9-0.2c0.5-0.1,0.9-0.2,1.4-0.4
			c0.3-0.1,0.6-0.3,0.8-0.4c0.6,0.8,2,0,2,0c0.3,0.1,0.6,0,0.9-0.2c0.4-0.2,0.4-0.1,0.9-0.3c0.8-0.2,1.5-0.4,2.2-0.8
			c0,0,0.1-0.1,0.1-0.1l0.2,1.8l-2.6-0.4c2.1,3.2,4.1,3.8,6.6,2.6c2.3-1.1,3.3-0.7,3.3-0.7c-0.7,0.7-1.5,1.4-2.3,2
			c-0.6,0.4-0.8,0.7-0.6,1.7c0.2,1.5,0.8,2.8,1.8,4c1,0.7,2.2,0.9,3.4,0.8c-0.1,1-0.2,2.4-0.3,4.2l-2-1.5c-0.1,2.6-0.1,5.3,0.2,7.9
			l-1.1-0.7c0,0.6-0.5,17.5,10,29.2c-1,1-2.3,1.8-3.7,2.3c0,0-11.5-9.5-10.9-34.6l1.3,0.9c-0.1-2.7-0.1-5.3,0.2-7.9l-6-4.6l-0.6-1.8
			l-6.2-2.6l4.2,5.2l2.3,0c-0.5,2.4-0.7,4.9-0.8,7.4l-1.4-0.9l-0.6-1.7L10,81.8l4.5,5l2.2-0.1c0,0-2.3,22.3,5.3,34.3
			c6.3,10,15.5,10.1,23.8,4.4c-1.1,3.2-2.5,6.2-4.1,9.2c1.1,0,2.3,0.1,3.4,0.3c0,0-0.3,1.5-0.5,1.9c-0.2,0.4-0.1,1.2,0.7,1.2
			s2,0.1,2,0.1s-0.2,1-0.2,1.6c0,0.7-0.1,1.1,2.9,1.2c3.1-0.1,2.9-0.4,2.9-1.2c0-0.6-0.2-1.6-0.2-1.6s1.1-0.1,2-0.1
			c0.9,0,0.9-0.8,0.7-1.2s-0.5-1.9-0.5-1.9c1.1-0.2,2.2-0.3,3.4-0.3c-1.6-2.9-3-6-4.1-9.2c8.4,5.6,17.5,5.5,23.8-4.4
			c7.6-12,5.3-34.3,5.3-34.3l2.2,0.1L89.9,81.8z M53.5,73.2c0.2-1.1,0.5-2.1,0.7-1.9c0.2,0.2,0.6,0.2,0.8,0c0.1-0.2,0.2-0.2,0.3,0
			s0.8,0.5,1.3-0.3c0.5-0.8,0.3-0.4,0.5-0.1c0.1,0.3,0.5,0.4,0.9,0.1c0.3-0.3,0.7-0.5,1-0.7c0.3-0.1,0.3-0.1,0.5-0.4
			s0.4-0.4,0.4-0.6c0-0.2-0.2-0.4,0.1-0.6c0.3-0.1,0.4-0.2,0.7-0.1c0.2,0.1,0.3-0.1,0.4,0c0.1,0.1,0.3,0.2,0.4,0.1
			c0,0,0.1,0,0.1-0.1c0.2-0.2,0.3-0.4,0.5-0.1c0.2,0.3,0.6,0.4,0.7,0.2s0.2-0.2,0.3,0.1c0.2,0.3,0.6,0.5,1,0.4c0,0,0.4,0.6,0.9,0.5
			c0.5-0.1,0.7-0.3,0.7-0.7s-0.2-1.5,0.2-1.3s0.3,0.1,0.4-0.1c0.1-0.2,0.3,0,0.4,0c0.2,0,0.1-0.3,0.4,0c0.3,0.3,0.3,0.4,0.6,0.5
			c0.3,0.1,0.5,0.2,0.7,0.5c0.3,0.3,0.6,0.6,1.1,0.4c0,0,0.3,0.4,0.7,0.4c0,0,0.7,0.8,1.1,0.7c0.3,0.1,0.6,0.2,0.9,0.3
			c0.2,0,0.3-0.2,0.4-0.1c0.1,0.1,0.1-0.3,0.3,0s0.6,0.7,0.9,0.6c0.3,0.3,0.7,0.4,1,0.5c0.5,0.1,0.6,0.2,0.7,0.2s0.1-0.1,0.3,0.1
			c0.2,0.2,0.6,0.3,0.9,0.2c0.2-0.1,0.4-0.1,0.6-0.1c0.1,0,0.2,0,0.3,0c-0.8,1.1-2.2,1.5-3.5,1c-2.3-0.7-3.1-0.4-3.5,0.1
			c-0.8,0.8-1.4,1.8-1.8,2.8c-0.3,0.9-0.1,1.6,1.6,3.6c-1.8,0-3.6-0.2-5.3-0.8c-2.7-1.1-5.8-1.1-8.5-0.1c-0.5,0.2-0.9,0.4-1.4,0.6
			c-0.3-0.3-1.1-1.1-1.4-1.5c0.1-0.5,0.2-1,0.2-1.5c0-0.4,0-0.8-0.3-1.2C53.4,74.5,53.3,73.8,53.5,73.2L53.5,73.2z M65.5,83
			c-2.1,1.2-4.5,1.9-6.9,1.8c-2.1,0-4.1-0.4-6-1.3c1.7-1,3.7-1.6,5.7-1.7c2.2-0.1,4.4,0.2,6.4,0.9L65.5,83z M51.7,78.3L51.7,78.3
			c0.4,0.2,0.9,0.2,1.3,0.2c0.5,0.4,0.9,0.8,1.3,1.2c-0.8,0.4-1.6,1-2.3,1.6c-0.2-0.7-0.3-1.5-0.4-2.3
			C51.6,78.7,51.7,78.4,51.7,78.3L51.7,78.3z M47.6,62.4c0.5,0.3,0.9,0.6,1.2,1.1c0.1,0.2,0.1,0.3,0.2,0.5c-0.4-0.1-0.7-0.1-1.1-0.1
			c-0.4-0.6-0.9-1.2-1.5-1.6C46.7,62.2,47.2,62.2,47.6,62.4L47.6,62.4z M44.8,62.2C44.8,62.1,44.8,62.1,44.8,62.2
			c0.6,0.9,1.6,1.6,2.7,1.9c-0.1,0.1-0.2,0.1-0.3,0.2c-0.6,0-1.1-0.2-1.6-0.4c-0.2-0.2-0.3-0.5-0.5-0.4c-0.2,0,0-0.3-0.2-0.4
			C44.7,62.9,44.4,62.9,44.8,62.2z M44.2,71.5c0.1,0.4,0.2,0.9,0.4,1.3c-0.1,0.1-0.1,0.2-0.2,0.3c-0.1-0.6-0.3-1.1-0.6-1.6
			C44,71.5,44.1,71.5,44.2,71.5z M29.5,79.4c1.7-2,1.9-2.7,1.6-3.6c-0.4-1-1.1-2-1.8-2.8c-0.5-0.5-1.2-0.8-3.5-0.1
			c-1.2,0.5-2.7,0.1-3.5-1c0.1,0,0.2,0,0.3,0c0.2,0,0.4,0,0.6,0.1c0.3,0.1,0.6,0,0.9-0.2c0.3-0.2,0.2-0.1,0.3-0.1s0.3-0.1,0.7-0.2
			c0.4-0.1,0.7-0.3,1-0.5c0.3,0.1,0.6-0.4,0.9-0.6c0.2-0.2,0.2,0.1,0.3,0c0.1-0.1,0.2,0.1,0.4,0.1c0.3,0,0.6-0.1,0.9-0.3
			c0.4,0.1,1.1-0.7,1.1-0.7c0.3,0,0.7-0.4,0.7-0.4c0.5,0.2,0.8-0.1,1.1-0.4c0.2-0.2,0.4-0.4,0.7-0.5c0.3-0.1,0.3-0.2,0.6-0.5
			c0.3-0.3,0.3-0.1,0.4,0s0.3-0.2,0.4,0c0.1,0.2,0.1,0.3,0.4,0.1c0.3-0.3,0.2,0.9,0.2,1.3c0,0.4,0.2,0.6,0.7,0.7
			c0.5,0.1,0.9-0.5,0.9-0.5c0.4,0.1,0.8-0.1,1-0.4c0.1-0.2,0.2-0.2,0.3-0.1c0.1,0.2,0.5,0.1,0.7-0.2c0.2-0.3,0.3,0,0.5,0.1
			c0.1,0.1,0.3,0.2,0.4,0.1c0,0,0.1,0,0.1-0.1c0.1-0.2,0.2,0.1,0.5,0s0.4,0,0.7,0.1s0.1,0.4,0.1,0.6c0,0.2,0.3,0.3,0.4,0.6
			c0.2,0.3,0.2,0.2,0.5,0.4c0.4,0.2,0.7,0.5,1,0.7c0.2,0.2,0.6,0.2,0.8,0c0,0,0.1-0.1,0.1-0.1c0.1,0.3,0.1,0.7,0.3,0.7l0,0
			c0.1,0,0.2-0.3,0.3-0.5c0.1,0.2,0.3,0.1,0.4,0.2c-0.6,1.3-0.6,2.8,0.2,4l0,0c0.1,0,0.1-0.1,0.2-0.2c0.1,0.5,0.1,1,0.1,1.5
			c-0.4,0.6-0.7,1.3-1,2c-2.7-1-5.7-1-8.4,0.1C33.1,79.1,31.3,79.4,29.5,79.4z M42.3,81.9c-0.3,1.1-0.8,2.1-1.4,3
			c-2.3,0-4.5-0.6-6.4-1.8l0.7-0.3c2-0.8,4.2-1.1,6.4-0.9C41.8,81.8,42,81.8,42.3,81.9z M32.4,83.4c0.3,0,0.5-0.1,0.8-0.1
			c2.1,1.9,4.9,2.9,7.8,2.8c3.2,0.1,6.4-0.9,8.9-2.8c2.5,2,5.7,3,8.9,2.8c2.9,0.2,5.7-0.8,7.8-2.8c0.3,0.1,0.6,0.1,0.8,0.1
			c0.3,4.8,0.2,9.6-0.5,14.3H32.8C32.2,93,32,88.2,32.4,83.4z M32.9,98.8H67c-0.4,4.2-1.5,8.2-3.3,12H36.2
			C34.4,107,33.3,102.9,32.9,98.8L32.9,98.8z M49.9,126.7c-5.7-3.8-10.2-8.9-13.3-15h26.5C60.2,117.8,55.6,123,49.9,126.7
			L49.9,126.7z"/>
		<path id="Trazado_2296" class="st0" d="M56.3,96.9c0.6,0,1.1-0.2,1.6-0.6c0.2,0.1,0.5,0.1,0.8,0.1c0.9,0,1.8-0.6,2.2-1.5
			c0.4,0.1,0.8,0,1.2-0.2c0.8-0.5,1.3-1.5,1-2.5c0,0,0.1-0.1,0.1-0.1c0.8-0.8,0.8-2,0-2.8c0,0,0-0.1-0.1-0.1
			c0.3-0.2,0.4-0.5,0.4-0.8c0-0.6-0.7-1-1.3-1c-0.6,0-1.3,0.5-1.3,1l0,0c-0.2,0.1-0.4,0.2-0.6,0.3c-0.3,0.3-0.5,0.7-0.5,1.1
			c-0.1,0-0.2,0.1-0.3,0.1c-0.1,0.1-0.3,0.2-0.4,0.3c-0.2,0-0.4-0.1-0.6-0.1c-0.3,0-0.5,0.1-0.8,0.2c-0.5-0.3-1-0.5-1.6-0.5
			c-1.9,0.3-3.2,2.1-2.9,4C53.6,95.6,54.8,96.7,56.3,96.9L56.3,96.9z"/>
		<path id="Trazado_2297" class="st0" d="M36.8,92.2c0,0,0.1,0.1,0.1,0.1c-0.2,1,0.2,2,1,2.5c0.4,0.2,0.8,0.3,1.2,0.2
			c0.4,0.9,1.2,1.4,2.2,1.5c0.3,0,0.5,0,0.8-0.1c0.5,0.4,1,0.6,1.6,0.6c1.9-0.2,3.3-2,3-3.9c-0.2-1.5-1.4-2.8-2.9-3
			c-0.6,0-1.1,0.2-1.6,0.5c-0.3-0.1-0.5-0.2-0.8-0.2c-0.2,0-0.4,0-0.6,0.1c-0.1-0.1-0.3-0.2-0.4-0.3c-0.1-0.1-0.2-0.1-0.3-0.1
			c0-0.4-0.1-0.8-0.4-1.1c-0.2-0.1-0.4-0.3-0.7-0.3l0,0c-0.1-0.6-0.6-1.1-1.3-1c-0.6,0-1.2,0.4-1.2,1c0,0.3,0.1,0.6,0.4,0.8
			c0,0-0.1,0-0.1,0.1C36,90.1,36,91.4,36.8,92.2z"/>
		<path id="Trazado_2298" class="st0" d="M50.1,110l1.4-2.1l-0.3-1l1.1,0.2c0.1,0.5,0.4,1,0.8,1.1c0.4,0,0.8,0,1.2,0l0.4-0.5
			c-0.4-0.3-0.8-0.6-1.2-0.9c-0.1-2.1-0.4-4.1-1.1-6c-0.4-1.1-0.9-1.1-1.8-1c-1.2,0.4-2.4,1-3.5,1.7l-0.2,1.5l0.9,0.1
			c0,0-0.5,1.7-0.7,2.3c-0.2,0.6,0,0.6,0.3,0.8c0.5,0.2,1,0.4,1.5,0.5l-0.3,1.5L50.1,110z"/>
		<path id="Trazado_2299" class="st0" d="M46.7,91.2c0.5,3,2.4,3.2,3.2,3.2c0,0.6-0.1,1.2-0.2,1.8l0.9,0.6c0.1-1,0.1-2,0-3
			c2.2-0.3,2.7-3.7,2.7-3.7c-1.4,0.5-2.5,1.8-2.7,3.3c-0.1-0.7-0.3-1.4-0.6-2.1c1.4-0.2,2.5-1.4,2.5-2.8c0-0.8-0.3-1.5-0.9-2.1
			l0.5-0.9l-1,0.2l-0.4-0.7l-0.7,0.6l-0.4-0.6L49,85.8l-0.9-0.5l0.2,0.8c-1.4,0.7-2,2.4-1.3,3.8c0.4,0.8,1.2,1.4,2.1,1.5
			c0.4,0.7,0.6,1.6,0.7,2.4C49.1,92.6,48,91.7,46.7,91.2z M49.8,91.3c-0.7,0-1.2-1.2-1.2-2.7c0-1.5,0.6-2.7,1.2-2.7
			c0.7,0,1.2,1.2,1.2,2.7C51,90.1,50.5,91.3,49.8,91.3L49.8,91.3z"/>
		<path id="Trazado_2300" class="st0" d="M52.3,115.4c-0.3-0.6-0.3-1.2,0-1.8h-3.4c-0.3,0.6-0.3,1.2,0,1.8H52.3z"/>
		<path id="Trazado_2301" class="st0" d="M48.9,119.7c-0.3,0.8-0.3,1.6,0,2.4h3.4c-0.2-0.8-0.2-1.6,0-2.4H48.9z"/>
		<path id="Trazado_2302" class="st0" d="M53.1,117.2l0.8-1.2h-5.2l-0.6-0.6h-2.2l0.3,0.6h0.5l0.6,1.2H53.1z"/>
		<path id="Trazado_2303" class="st0" d="M53,122.7h-4.4l-0.3-0.6h-1.1l0.3,0.7l0.9,0.5h4.5l0.9-0.5l0.1-0.7h-0.7L53,122.7z"/>
	</g>
	<g id="Grupo_7238" transform="translate(9031.268 -369.948)">
		<g id="Grupo_4376">
			<path id="Trazado_2304" class="st0" d="M157.6,77.3c-5-4.7-11.7-7.4-18.6-7.4c-16.1,0-25.5,12.1-25.4,26.7
				c0,12.6,7.5,24.8,25.4,24.8c6.2,0.1,12.2-2,16.8-6.1v-14h-19.2v-9.8H166v28.3c-6.8,7.8-16.7,12.3-27.1,12
				c-25.3,0-36.2-16.8-36.2-35.1c0-19.9,12.7-36.8,36.2-36.8c9.5,0,18.7,3.7,25.5,10.4L157.6,77.3z"/>
			<path id="Trazado_2305" class="st0" d="M245.5,96c0,18.7-11.4,35.8-35.4,35.8s-35.4-17.5-35.4-35.7c0-21,14.7-36.3,35.6-36.3
				C234,59.9,245.5,77.3,245.5,96z M210.1,121.6c17.2,0,24.4-12.2,24.4-25.4c0-12.7-7.3-26-24.2-26.3c-16,0-24.6,11.2-24.6,26.3
				C185.9,108.4,193,121.6,210.1,121.6L210.1,121.6z"/>
			<path id="Trazado_2306" class="st0" d="M288.8,131.8h-11.9L247.2,60h12.9l22.8,58.1L305.7,60h12.8L288.8,131.8z"/>
			<path id="Trazado_2307" class="st0" d="M325.9,124.5c0,4-3.2,7.2-7.2,7.2c-4,0-7.2-3.2-7.2-7.2c0-4,3.2-7.2,7.2-7.2
				C322.7,117.3,325.9,120.5,325.9,124.5z"/>
			<path id="Trazado_2308" class="st0" d="M395.7,121.5c-7,6.8-16.3,10.5-26.1,10.3c-25.2,0-36.5-17.3-36.6-35.6
				c-0.1-18.2,11.8-36.4,36.6-36.4c9.5,0,18.7,3.7,25.4,10.5l-7.4,7.1c-4.8-4.6-11.3-7.2-17.9-7.1c-17.6,0-25.7,13-25.6,25.8
				c0.1,12.7,7.6,25.3,25.6,25.3c6.9-0.1,13.5-2.8,18.4-7.5L395.7,121.5z"/>
			<path id="Trazado_2309" class="st0" d="M475.6,96.1c0,18.6-11.3,35.7-35.3,35.7c-23.9,0-35.3-17.4-35.3-35.6
				c0-21,14.7-36.2,35.5-36.2C464.1,60.1,475.6,77.5,475.6,96.1z M440.3,121.6c17.1,0,24.3-12.1,24.3-25.3
				c0-12.7-7.3-25.9-24.1-26.2c-16,0-24.5,11.1-24.5,26.2C416.2,108.5,423.3,121.6,440.3,121.6L440.3,121.6z"/>
		</g>
	</g>
	<g id="Grupo_7236" transform="translate(9023.487 -373.838)">
		<rect id="Rectángulo_1847" x="81.8" y="49.3" class="st1" width="7.7" height="43.2"/>
		<rect id="Rectángulo_1848" x="81.8" y="92.5" class="st2" width="7.7" height="28.8"/>
		<rect id="Rectángulo_1849" x="81.8" y="121.3" class="st3" width="7.7" height="28.8"/>
	</g>
</g>
</svg>
