<svg id="Layer_1" data-name="Layer 1" xmlns="http://www.w3.org/2000/svg" viewBox="0 0 48 48"><defs><style>.cls-1{fill:#36c;}</style></defs><title>Mail_Area de servicio48px</title><g id="a"><path class="cls-1" d="M45.26,5.49H2.74A2.74,2.74,0,0,0,0,8.23H0V39.77a2.74,2.74,0,0,0,2.74,2.74H45.26A2.74,2.74,0,0,0,48,39.77V8.23a2.74,2.74,0,0,0-2.74-2.74ZM42,34.91a1.34,1.34,0,0,1,.06,1.9h0a1.37,1.37,0,0,1-1,.41,1.32,1.32,0,0,1-.92-.37L28.27,25.5l-3.35,3a1.33,1.33,0,0,1-.89.35,1.27,1.27,0,0,1-.88-.35l-3.26-2.91-12,11.2a1.34,1.34,0,0,1-.92.35,1.37,1.37,0,0,1-1-.43A1.33,1.33,0,0,1,6,34.83H6l11.83-11L6,13.15a1.34,1.34,0,0,1,1.7-2.08l.09.08L20.64,22.66l.22.19,0,0L24,25.71l16.2-14.48a1.34,1.34,0,0,1,1.84,2l0,0L30.27,23.72Z"/></g></svg>