<svg xmlns="http://www.w3.org/2000/svg" width="18" height="18" viewBox="0 0 18 18"><defs><style>.a{fill:#4b4b4b;}</style></defs><path class="a" d="M11,2a9,9,0,1,0,9,9A9,9,0,0,0,11,2Zm4.351,3.823.921-.921a.584.584,0,1,1,.826.826l-.921.921a.584.584,0,0,1-.826-.826ZM10.415,2.957a.585.585,0,1,1,1.169,0V4.268a.585.585,0,1,1-1.169,0ZM4.9,4.9a.586.586,0,0,1,.826,0h0l.925.921a.584.584,0,1,1-.8.854l-.028-.028L4.9,5.728a.583.583,0,0,1,0-.826Zm-.634,6.679H2.957a.583.583,0,1,1-.046-1.166H4.268a.583.583,0,1,1,.046,1.166Zm2.385,4.6-.925.921a.584.584,0,1,1-.826-.826l.925-.921a.586.586,0,0,1,.826,0,.58.58,0,0,1,0,.826Zm4.936,2.863a.585.585,0,1,1-1.169,0v-1.3a.585.585,0,0,1,1.169,0ZM12.963,7.584l-1.421,3.628a.586.586,0,0,1-.429.358l-3.522.709a.652.652,0,0,1-.117.011.583.583,0,0,1-.113-1.155l3.21-.645,1.3-3.331a.586.586,0,0,1,1.091.425ZM17.094,17.1a.582.582,0,0,1-.822,0l-.921-.921a.584.584,0,0,1,.826-.826h0l.921.921a.586.586,0,0,1,0,.826Zm1.945-5.517h-1.3a.583.583,0,0,1-.046-1.166h1.35a.583.583,0,1,1,.046,1.166Z" transform="translate(-2 -2)"/></svg>