<svg id="Capa_1" data-name="Capa 1" xmlns="http://www.w3.org/2000/svg" viewBox="0 0 48 48"><defs><style>.cls-1{fill:#4b4b4b;}</style></defs><g id="Grupo_7326" data-name="Grupo 7326"><path id="Trazado_4159" data-name="Trazado 4159" class="cls-1" d="M29.91,23.94A6.69,6.69,0,0,0,25,21.77H23a2.23,2.23,0,0,1-1.62-.71,2.22,2.22,0,0,1,1.77-3.69h2.32a1.38,1.38,0,0,1,1.36,1.11.92.92,0,0,0,.9.71h2.63a1,1,0,0,0,.71-.3,1.22,1.22,0,0,0,.27-.71A5.81,5.81,0,0,0,26.26,13V10.73a.9.9,0,0,0-.91-.9H22.78a.9.9,0,0,0-.91.9V13a6.58,6.58,0,0,0-5.35,7.17,6.8,6.8,0,0,0,6.87,6H25a2.21,2.21,0,1,1-.15,4.41H22.52a1.39,1.39,0,0,1-1.36-1.12,1,1,0,0,0-.91-.71H17.62a1.06,1.06,0,0,0-.71.3.91.91,0,0,0-.19.71,5.8,5.8,0,0,0,5.06,5.21v2.22a.91.91,0,0,0,.91.91h2.59a.91.91,0,0,0,.91-.91V34.83A6.69,6.69,0,0,0,31.59,29,6.61,6.61,0,0,0,29.91,23.94Z"/><path id="Trazado_4160" data-name="Trazado 4160" class="cls-1" d="M24,0A24,24,0,1,0,48,24,24,24,0,0,0,24,0ZM4.35,24A19.68,19.68,0,0,1,8.64,11.73l5.66,5.66a8.18,8.18,0,0,1,2.17-3.94L11.72,8.69A19.63,19.63,0,0,1,39.31,36.28l-5.6-5.66a8.17,8.17,0,0,1-2.22,3.94l4.75,4.8A19.63,19.63,0,0,1,4.35,24Z"/></g></svg>