<svg id="Capa_1" data-name="Capa 1" xmlns="http://www.w3.org/2000/svg" viewBox="0 0 48 48"><defs><style>.cls-1{fill:#069169;}</style></defs><path class="cls-1" d="M24,0A24,24,0,1,0,48,24,24,24,0,0,0,24,0Zm2,34.89v2.27a.9.9,0,0,1-.91.88h-2.6a.9.9,0,0,1-.91-.88V35a5.73,5.73,0,0,1-5.06-5.07.83.83,0,0,1,.2-.69,1,1,0,0,1,.71-.29H20.1a.93.93,0,0,1,.91.69,1.37,1.37,0,0,0,1.36,1.08h2.34A2.25,2.25,0,0,0,27,28.8a2.14,2.14,0,0,0-.56-1.67,2.23,2.23,0,0,0-1.62-.69H23.24a6.76,6.76,0,0,1-6.88-5.8,6.44,6.44,0,0,1,5.37-7V11.45a.9.9,0,0,1,.91-.89h2.57a.89.89,0,0,1,.9.89v2.17a5.73,5.73,0,0,1,5.07,5.07,1.24,1.24,0,0,1-.25.69,1,1,0,0,1-.71.29H27.58a.94.94,0,0,1-.91-.69,1.37,1.37,0,0,0-1.36-1.08H23a2.3,2.3,0,0,0-2.33,1.92,2.14,2.14,0,0,0,.56,1.67,2.21,2.21,0,0,0,1.62.69h2a6.82,6.82,0,0,1,4.92,2.11,6.33,6.33,0,0,1,1.67,4.94A6.6,6.6,0,0,1,26,34.89Z"/></svg>