<svg xmlns="http://www.w3.org/2000/svg" width="52.108" height="52.108" viewBox="0 0 52.108 52.108"><defs><style>.a{fill:#004884;}</style></defs><g transform="translate(0)"><path class="a" d="M23.978,280.6a2.605,2.605,0,0,0,0,5.211v2.811a18.237,18.237,0,0,0-8.3,3.44l-1.988-1.988A2.605,2.605,0,1,0,10,286.385l-3.684,3.684A2.605,2.605,0,0,0,10,293.753l1.99,1.99a18.238,18.238,0,0,0-3.437,8.3H5.74a2.605,2.605,0,1,0-5.211,0v5.211a2.605,2.605,0,1,0,5.211,0H8.551a18.238,18.238,0,0,0,3.44,8.3L10,319.546a2.605,2.605,0,0,0-3.684,3.684L10,326.914a2.605,2.605,0,1,0,3.684-3.684l1.99-1.99a18.238,18.238,0,0,0,8.3,3.437v2.815a2.605,2.605,0,0,0,0,5.211h5.211a2.605,2.605,0,0,0,0-5.211v-2.811a18.237,18.237,0,0,0,8.3-3.44l1.988,1.988a2.605,2.605,0,0,0,3.684,3.684l3.684-3.684a2.605,2.605,0,0,0-3.684-3.684l-1.99-1.99a18.238,18.238,0,0,0,3.437-8.3h2.816a2.605,2.605,0,1,0,5.211,0v-5.211a2.605,2.605,0,0,0-5.211,0H44.615a18.237,18.237,0,0,0-3.44-8.3l1.988-1.988a2.605,2.605,0,1,0,3.684-3.684l-3.684-3.684a2.605,2.605,0,1,0-3.684,3.684l-1.99,1.99a18.239,18.239,0,0,0-8.3-3.437v-2.816a2.605,2.605,0,0,0,0-5.211Zm2.605,13.027a.868.868,0,1,1-.868.868A.868.868,0,0,1,26.583,293.623Zm-6.078,1.739a5.208,5.208,0,1,1-5.211,5.211A5.22,5.22,0,0,1,20.505,295.361ZM32.661,297.1a3.475,3.475,0,1,1-3.474,3.474A3.489,3.489,0,0,1,32.661,297.1Zm-18.236,8.683a.868.868,0,1,1-.868.868.869.869,0,0,1,.868-.868Zm12.158,0a.868.868,0,1,1-.868.868.869.869,0,0,1,.868-.868Zm12.158,0a.868.868,0,1,1-.868.868.869.869,0,0,1,.868-.868Zm-6.081,1.734a5.212,5.212,0,1,1-5.212,5.212A5.227,5.227,0,0,1,32.661,307.515Zm-12.155,1.739a3.475,3.475,0,1,1-3.474,3.474A3.489,3.489,0,0,1,20.505,309.253Zm6.078,8.686a.868.868,0,1,1-.868.869A.869.869,0,0,1,26.583,317.94Z" transform="translate(-0.529 -280.596)"/></g></svg>