<?xml version="1.0" encoding="utf-8"?>
<!-- Generator: Adobe Illustrator 24.3.0, SVG Export Plug-In . SVG Version: 6.00 Build 0)  -->
<svg version="1.1" id="Layer_1" xmlns="http://www.w3.org/2000/svg" xmlns:xlink="http://www.w3.org/1999/xlink" x="0px" y="0px"
	 viewBox="0 0 45 45" style="enable-background:new 0 0 45 45;" xml:space="preserve">
<style type="text/css">
	.st0{fill:#004884;}
	.st1{fill:#FFFFFF;}
</style>
<circle class="st0" cx="22.5" cy="22.5" r="20"/>
<g>
	<path id="Path_6403" class="st1" d="M27.4,21v-4.1c0-0.1-0.1-0.2-0.1-0.3l-4.7-4.9c-0.1-0.1-0.2-0.1-0.4-0.1h-7.3
		c-1.4,0-2.5,1.1-2.4,2.5l0,0v14c0,1.4,1.1,2.4,2.4,2.5l0,0h5.9c1.8,3,5.6,4,8.7,2.2s3.9-5.7,2.1-8.8C30.7,22.4,29.2,21.3,27.4,21z
		 M22.8,13l3.1,3.3h-2c-0.6,0-1.1-0.5-1.1-1.1V13z M14.9,29.4c-0.8,0-1.5-0.7-1.5-1.5l0,0v-14c0-0.8,0.7-1.5,1.5-1.5l0,0h6.9v2.8
		c0,1.1,0.9,2,2,2h2.7v3.6c-0.1,0-0.2,0-0.4,0c-1.5,0-3,0.6-4.2,1.6h-5.8c-0.2,0-0.5,0.2-0.5,0.5c0,0.3,0.2,0.5,0.5,0.5h5
		c-0.3,0.4-0.6,0.9-0.8,1.4h-4.1c-0.2,0-0.5,0.2-0.4,0.5c0,0.2,0.2,0.4,0.4,0.4H20c-0.3,1.2-0.2,2.6,0.3,3.8H14.9L14.9,29.4z
		 M26.2,32.5c-3,0-5.4-2.4-5.4-5.4c0-3,2.4-5.4,5.4-5.4s5.4,2.4,5.4,5.4C31.5,30.1,29.2,32.5,26.2,32.5L26.2,32.5z"/>
	<path id="Path_6404" class="st1" d="M16.1,21h4.7c0.2,0,0.5-0.2,0.5-0.5s-0.2-0.5-0.5-0.5l0,0h-4.7c-0.2,0-0.5,0.2-0.5,0.5
		C15.7,20.8,15.9,21,16.1,21z"/>
	<path id="Path_6405" class="st1" d="M28.5,26.8l-2,2.1v-5.2c0-0.2-0.2-0.5-0.5-0.5c-0.2,0-0.5,0.2-0.5,0.5v5.2l-2-2.1
		c-0.2-0.2-0.5-0.2-0.7,0c-0.2,0.2-0.2,0.5,0,0.7l0,0l2.7,3c0.2,0.2,0.5,0.2,0.7,0l0,0l2.8-3c0.2-0.2,0.2-0.5,0-0.7
		C29,26.7,28.7,26.7,28.5,26.8C28.6,26.8,28.6,26.8,28.5,26.8L28.5,26.8z"/>
</g>
</svg>
