<svg xmlns="http://www.w3.org/2000/svg" xmlns:xlink="http://www.w3.org/1999/xlink" width="607" height="72" viewBox="0 0 607 72">
  <defs>
    <style>
      .cls-1 {
        clip-path: url(#clip-Web_1280_2);
      }

      .cls-2, .cls-3 {
        fill: #004884;
      }

      .cls-3 {
        font-size: 14px;
        font-family: Montserrat-Regular, Montserrat;
      }

      .cls-4 {
        fill: #fff;
      }
    </style>
    <clipPath id="clip-Web_1280_2">
      <rect width="607" height="72"/>
    </clipPath>
  </defs>
  <g id="Web_1280_2" data-name="Web 1280 – 2" class="cls-1">
    <rect class="cls-4" width="607" height="72"/>
    <path id="Trazado_8" data-name="Trazado 8" class="cls-2" d="M236.5,725c0-.6.343-1,1.028-1.4a4.824,4.824,0,0,1,2.4-.6H802.072a4.395,4.395,0,0,1,2.4.6A1.73,1.73,0,0,1,805.5,725c0,.6-.343,1-1.028,1.4a4.824,4.824,0,0,1-2.4.6H239.928a4.395,4.395,0,0,1-2.4-.6C236.843,726,236.5,725.6,236.5,725Z" transform="translate(-218.5 -707)"/>
    <path id="Trazado_10" data-name="Trazado 10" class="cls-2" d="M254,707a19.528,19.528,0,0,1,3.4.3,20.737,20.737,0,0,1,3.3,1,14.289,14.289,0,0,1,3,1.6,18.569,18.569,0,0,1,2.7,2.2,19.866,19.866,0,0,1,2.2,2.7,21.858,21.858,0,0,1,1.6,3,20.741,20.741,0,0,1,1,3.3,19.418,19.418,0,0,1,0,6.8,20.741,20.741,0,0,1-1,3.3,14.287,14.287,0,0,1-1.6,3,18.569,18.569,0,0,1-2.2,2.7,19.866,19.866,0,0,1-2.7,2.2,21.858,21.858,0,0,1-3,1.6,20.739,20.739,0,0,1-3.3,1,19.417,19.417,0,0,1-6.8,0,20.738,20.738,0,0,1-3.3-1,14.289,14.289,0,0,1-3-1.6,18.567,18.567,0,0,1-2.7-2.2,14.422,14.422,0,0,1-2.2-2.7,21.86,21.86,0,0,1-1.6-3,20.739,20.739,0,0,1-1-3.3,19.417,19.417,0,0,1,0-6.8,20.739,20.739,0,0,1,1-3.3,14.287,14.287,0,0,1,1.6-3,18.57,18.57,0,0,1,2.2-2.7,14.421,14.421,0,0,1,2.7-2.2,21.858,21.858,0,0,1,3-1.6,20.738,20.738,0,0,1,3.3-1A19.528,19.528,0,0,1,254,707Z" transform="translate(-218.5 -707)"/>
    <path id="Trazado_74" data-name="Trazado 74" class="cls-2" d="M254,707a19.528,19.528,0,0,1,3.4.3,20.737,20.737,0,0,1,3.3,1,14.289,14.289,0,0,1,3,1.6,18.569,18.569,0,0,1,2.7,2.2,19.866,19.866,0,0,1,2.2,2.7,21.858,21.858,0,0,1,1.6,3,20.741,20.741,0,0,1,1,3.3,19.418,19.418,0,0,1,0,6.8,20.741,20.741,0,0,1-1,3.3,14.287,14.287,0,0,1-1.6,3,18.569,18.569,0,0,1-2.2,2.7,19.866,19.866,0,0,1-2.7,2.2,21.858,21.858,0,0,1-3,1.6,20.739,20.739,0,0,1-3.3,1,19.417,19.417,0,0,1-6.8,0,20.738,20.738,0,0,1-3.3-1,14.289,14.289,0,0,1-3-1.6,18.567,18.567,0,0,1-2.7-2.2,14.422,14.422,0,0,1-2.2-2.7,21.86,21.86,0,0,1-1.6-3,20.739,20.739,0,0,1-1-3.3,19.417,19.417,0,0,1,0-6.8,20.739,20.739,0,0,1,1-3.3,14.287,14.287,0,0,1,1.6-3,18.57,18.57,0,0,1,2.2-2.7,14.421,14.421,0,0,1,2.7-2.2,21.858,21.858,0,0,1,3-1.6,20.738,20.738,0,0,1,3.3-1A19.528,19.528,0,0,1,254,707Z" transform="translate(48.5 -707)"/>
    <path id="Trazado_15" data-name="Trazado 15" class="cls-2" d="M787.9,707a19.529,19.529,0,0,1,3.4.3,20.738,20.738,0,0,1,3.3,1,14.29,14.29,0,0,1,3,1.6,18.569,18.569,0,0,1,2.7,2.2,14.421,14.421,0,0,1,2.2,2.7,21.858,21.858,0,0,1,1.6,3,20.738,20.738,0,0,1,1,3.3,19.418,19.418,0,0,1,0,6.8,20.738,20.738,0,0,1-1,3.3,14.29,14.29,0,0,1-1.6,3,18.569,18.569,0,0,1-2.2,2.7,14.421,14.421,0,0,1-2.7,2.2,21.858,21.858,0,0,1-3,1.6,20.738,20.738,0,0,1-3.3,1,19.418,19.418,0,0,1-6.8,0,20.738,20.738,0,0,1-3.3-1,14.29,14.29,0,0,1-3-1.6,18.569,18.569,0,0,1-2.7-2.2,14.421,14.421,0,0,1-2.2-2.7,21.858,21.858,0,0,1-1.6-3,20.738,20.738,0,0,1-1-3.3,19.418,19.418,0,0,1,0-6.8,20.738,20.738,0,0,1,1-3.3,14.29,14.29,0,0,1,1.6-3,18.569,18.569,0,0,1,2.2-2.7,14.421,14.421,0,0,1,2.7-2.2,21.858,21.858,0,0,1,3-1.6,20.738,20.738,0,0,1,3.3-1A19.528,19.528,0,0,1,787.9,707Z" transform="translate(-218.4 -707)"/>
    <text id="En_trámite" data-name="En trámite" class="cls-3" transform="translate(-1 68)"><tspan x="0" y="0">En trámite</tspan></text>
    <text id="Formalizado" class="cls-3" transform="translate(267 68)"><tspan x="0" y="0">Formalizado</tspan></text>
    <text id="Cancelado" class="cls-3" transform="translate(533 68)"><tspan x="0" y="0">Cancelado</tspan></text>
  </g>
</svg>
