<svg xmlns="http://www.w3.org/2000/svg" width="18" height="18" viewBox="0 0 18 18"><defs><style>.a{fill:#069169;}.b{fill:#fff;}</style></defs><circle class="a" cx="9" cy="9" r="9"/><path class="b" d="M246.316,624.978a2.493,2.493,0,0,0-1.834-.813h-.756a.818.818,0,0,1-.6-.265.856.856,0,0,1-.208-.643.866.866,0,0,1,.869-.738h.866a.518.518,0,0,1,.509.417.351.351,0,0,0,.339.265h.982a.378.378,0,0,0,.265-.113.449.449,0,0,0,.1-.265,2.168,2.168,0,0,0-1.89-1.947v-.837a.339.339,0,0,0-.339-.339h-.957a.339.339,0,0,0-.339.339v.852a2.46,2.46,0,0,0-2,2.682,2.547,2.547,0,0,0,2.569,2.229h.6a.818.818,0,0,1,.6.265.828.828,0,0,1-.661,1.381h-.873a.518.518,0,0,1-.509-.417.351.351,0,0,0-.339-.265h-.982a.378.378,0,0,0-.265.113.342.342,0,0,0-.074.265,2.168,2.168,0,0,0,1.89,1.947v.83a.339.339,0,0,0,.339.339h.968a.339.339,0,0,0,.339-.339v-.873a2.456,2.456,0,0,0,1.4-4.07Z" transform="translate(-235.314 -615.718)"/></svg>