<svg xmlns="http://www.w3.org/2000/svg" width="18" height="18" viewBox="0 0 18 18"><defs><style>.a{fill:#4b4b4b;}</style></defs><g transform="translate(0 0)"><path class="a" d="M1148.433,1068.295a2.5,2.5,0,0,0-1.839-.815h-.758a.821.821,0,0,1-.606-.266.858.858,0,0,1-.209-.645.868.868,0,0,1,.872-.741h.868a.52.52,0,0,1,.51.418.352.352,0,0,0,.34.266h.985a.38.38,0,0,0,.266-.113.45.45,0,0,0,.1-.266,2.174,2.174,0,0,0-1.9-1.952v-.84a.34.34,0,0,0-.34-.34h-.964a.34.34,0,0,0-.34.34v.854a2.467,2.467,0,0,0-2.009,2.689,2.555,2.555,0,0,0,2.576,2.236h.606a.821.821,0,0,1,.606.266.83.83,0,0,1-.663,1.385h-.875a.52.52,0,0,1-.51-.418.352.352,0,0,0-.34-.266h-.985a.379.379,0,0,0-.266.113.342.342,0,0,0-.074.266,2.174,2.174,0,0,0,1.9,1.952v.833a.34.34,0,0,0,.34.34h.971a.34.34,0,0,0,.34-.34v-.875a2.509,2.509,0,0,0,2.027-2.179A2.472,2.472,0,0,0,1148.433,1068.295Z" transform="translate(-1137.215 -1059.316)"/><path class="a" d="M978,959a9,9,0,1,0,9,9A9.008,9.008,0,0,0,978,959Zm-7.37,9a7.375,7.375,0,0,1,1.609-4.6l2.122,2.122a3.065,3.065,0,0,1,.815-1.477l-1.782-1.786a7.362,7.362,0,0,1,10.346,10.346l-2.1-2.122a3.036,3.036,0,0,1-.833,1.477l1.782,1.8A7.364,7.364,0,0,1,970.63,968Z" transform="translate(-969 -959)"/></g></svg>